<svg aria-hidden="true" style="position: absolute; width: 0; height: 0; overflow: hidden;" version="1.1" xmlns="http://www.w3.org/2000/svg" xmlns:xlink="http://www.w3.org/1999/xlink">
<defs>
<symbol id="icon-health" viewBox="0 0 32 32">
<path d="M27 28.031h-2v1.938h-4v-1.938h-11v1.938h-4v-1.938h-2c-1.105 0-2-0.896-2-2v-17c0-1.105 0.895-2 2-2h23c1.104 0 2 0.896 2 2v17c0 1.105-0.896 2-2 2zM20.999 16.031h-3.999v-4h-3v4h-4v3h4v4h3v-4h3.999v-3zM19 4.010h-6v2.021h-2v-0.979h1v-3.021h7.958v3h1.042v1h-2v-2.021z"></path>
</symbol>
<symbol id="icon-wallet" viewBox="0 0 32 32">
<path d="M18 22c-1.104 0-2-0.896-2-2v-2c0-1.105 0.896-2 2-2h12v6h-12zM19.5 17.583c-0.828 0-1.5 0.672-1.5 1.5 0 0.829 0.672 1.5 1.5 1.5 0.829 0 1.5-0.671 1.5-1.5 0-0.828-0.671-1.5-1.5-1.5zM15 18v2c0 1.656 1.344 3 3 3h10v4c0 1.656-1.343 3-3 3h-21c-1.656 0-3-1.344-3-3v-19c0-1.657 1.344-3 3-3h9.632l-2.349 0.979h-7.782c-0.828 0-1.5 0.672-1.5 1.5s0.672 1.5 1.5 1.5h24.499v6.021h-10c-1.656 0-3 1.343-3 3zM5.001 11h-2v2h1v-1h1v-1zM5.001 14h-2v2h1.041l-0.041-1 1 0.021v-1.021zM5.001 17h-2v2h1.021l-0.021-1h1v-1zM5.001 20h-2v2h1.021l-0.021-1 1 0.021v-1.021zM5.001 23h-2v2h1v-1h1v-1zM5.001 26h-2v2h1.021l-0.021-0.979h1v-1.021zM9.001 7.938l11.75-4.938 2.25 4.938h-14zM22.646 5h2.354c0.876 0 1.656 0.381 2.205 0.979h-4.081l-0.478-0.979z"></path>
</symbol>
<symbol id="icon-chart" viewBox="0 0 32 32">
<path d="M27 15.031h-20v5h20c0.552 0 1-0.447 1-1v-3c0-0.552-0.448-1-1-1zM22 25.031v-3c0-0.553-0.448-1-1-1h-14v5h14c0.552 0 1-0.447 1-1zM16 13.031v-3c0-0.552-0.448-1-1-1h-8v5h8c0.552 0 1-0.448 1-1zM10 7.031v-3c0-0.553-0.448-1-1-1h-2v5h2c0.552 0 1-0.448 1-1zM5 3.031h-1v25.938h24v-1h-23v-24.938z"></path>
</symbol>
<symbol id="icon-cord" viewBox="0 0 32 32">
<path d="M26.917 18.518l-13.435-13.435c-0.586-0.586-0.586-1.536 0-2.121s1.535-0.586 2.121 0l3.182 3.182 3.89-3.889c0.586-0.586 1.535-0.586 2.121 0s0.586 1.535 0 2.121l-3.889 3.889 2.828 2.828 3.889-3.889c0.586-0.586 1.536-0.586 2.122 0s0.585 1.535 0 2.121l-3.89 3.89 3.183 3.182c0.585 0.586 0.585 1.535 0 2.121s-1.536 0.586-2.122 0zM20.907 23.821c-1.297 1.296-7.071 1.414-7.071 1.414l-7.071-7.071c0 0 0.118-5.774 1.414-7.071 1.297-1.296 4.95-4.949 4.95-4.949l12.728 12.728c-0.001-0.001-3.654 3.652-4.95 4.949zM6.765 19.578l5.657 5.657c0.391 0.391 0.391 1.023 0 1.414s-1.024 0.391-1.415 0l-5.656-5.657c-0.391-0.391-0.391-1.023 0-1.414s1.023-0.39 1.414 0zM9.593 26.649c0 0-0.475 0.476-1.061 1.061s-1.535 0.586-2.121 0l-0.354-0.354-2.829 2.828-1.414-1.414 2.829-2.828-0.353-0.353c-0.586-0.586-0.586-1.536 0-2.122s1.119-1.001 1.119-1.001l4.184 4.183z"></path>
</symbol>
<symbol id="icon-pil" viewBox="0 0 32 32">
<path d="M5.601 18.621c-1.952 1.953-1.952 5.119 0 7.072l0.708 0.707c1.952 1.951 5.118 1.951 7.071 0l5.656-5.658-7.778-7.778-5.657 5.657zM12.672 25.693c-1.562 1.562-4.095 1.562-5.656 0l-0.707-0.707c-1.562-1.562-1.562-4.096 0-5.658l4.949-4.949 6.364 6.363-4.95 4.951zM25.4 7.308l-0.707-0.707c-1.952-1.953-5.118-1.953-7.071 0l-5.657 5.656 7.778 7.778 5.657-5.656c1.953-1.953 1.953-5.119 0-7.071z"></path>
</symbol>
<symbol id="icon-injection" viewBox="0 0 32 32">
<path d="M24.16 9.207c0.378 0.377 0.378 0.989 0 1.367s-0.685 0.684-0.685 0.684l0.685 0.684c0.755 0.755 0.755 1.979 0 2.735l-10.255 10.253c-0.756 0.756-1.98 0.756-2.735 0l-0.684-0.684-2.734 2.736 1.367 1.367c0.378 0.377 0.378 0.988 0 1.367-0.378 0.377-0.99 0.377-1.367 0l-5.47-5.471c-0.377-0.377-0.377-0.988 0-1.367 0.378-0.377 0.99-0.377 1.367 0l1.367 1.367 2.735-2.734-0.684-0.684c-0.756-0.754-0.756-1.979 0-2.734l10.256-10.254c0.756-0.756 1.979-0.756 2.734 0l0.684 0.684c0 0 0.307-0.307 0.684-0.684 0.378-0.378 0.99-0.378 1.367 0l0.342 0.342 5.47-5.47v1.367l-4.786 4.786 0.342 0.343zM19.374 8.523c-0.377-0.378-0.989-0.378-1.367 0l-2.051 2.051 1.367 1.367-0.684 0.684-1.367-1.367-2.051 2.051 1.367 1.368-0.684 0.684-1.368-1.368-0.684 0.684 2.735 2.734-0.684 0.684-2.735-2.734-2.049 2.049 2.734 2.734-0.684 0.684-2.734-2.734-0.684 0.684c-0.378 0.377-0.378 0.99 0 1.367l4.102 4.102c0.378 0.379 0.99 0.379 1.368 0l10.254-10.254c0.379-0.377 0.379-0.989 0-1.367l-4.101-4.103zM16.64 9.89l0.684-0.684 2.734 2.734-0.684 0.684-2.734-2.734zM16.64 15.359l-2.734-2.735 0.684-0.684 2.734 2.735-0.684 0.684zM9.803 16.727l0.684-0.684 1.367 1.367-0.684 0.684-1.367-1.367zM29.942 9.386c0 0.725-0.588 1.312-1.312 1.312-0.726 0-1.313-0.588-1.313-1.312 0-0.726 1.313-2.708 1.313-2.708s1.312 1.983 1.312 2.708z"></path>
</symbol>
<symbol id="icon-dollar" viewBox="0 0 38 32">
<path d="M36.002 23.010l0.057-17.089-31.050 0.019-0.001-1.96h32.992v19.031l-1.998-0.001zM34.995 26.017l-1.997-0.002 0.057-17.089-31.050 0.020-0.001-1.96h32.992v19.031zM32.053 28.020h-32.053v-18.030h32.053v18.030zM30.049 11.931h-28.046v14.086h28.045v-14.086zM27.045 24.515c0 0.177 0.044 0.342 0.101 0.5h-11.12c2.766 0 5.009-2.69 5.009-6.010s-2.243-6.010-5.009-6.010h11.119c-0.057 0.158-0.101 0.323-0.101 0.501 0 0.83 0.672 1.502 1.502 1.502 0.178 0 0.343-0.044 0.501-0.101v8.215c-0.158-0.056-0.323-0.101-0.501-0.101-0.829 0.001-1.501 0.674-1.501 1.504zM25.041 16.919c-0.83 0-1.502 0.896-1.502 2.003s0.672 2.003 1.502 2.003 1.502-0.896 1.502-2.003-0.672-2.003-1.502-2.003zM18.123 15.394c0.015 0.029 0.027 0.068 0.037 0.116 0.011 0.048 0.018 0.109 0.021 0.182 0.005 0.073 0.007 0.164 0.007 0.273 0 0.121-0.003 0.224-0.009 0.307-0.007 0.084-0.018 0.153-0.031 0.207-0.016 0.055-0.036 0.095-0.062 0.119-0.027 0.025-0.064 0.038-0.11 0.038s-0.118-0.029-0.219-0.087c-0.101-0.059-0.224-0.121-0.369-0.189s-0.315-0.131-0.507-0.187-0.402-0.084-0.632-0.084c-0.18 0-0.336 0.021-0.469 0.065-0.134 0.044-0.246 0.104-0.335 0.181s-0.157 0.17-0.2 0.277c-0.044 0.108-0.066 0.223-0.066 0.343 0 0.18 0.049 0.335 0.147 0.467s0.229 0.248 0.395 0.35c0.165 0.103 0.352 0.198 0.56 0.288s0.421 0.185 0.638 0.284c0.217 0.101 0.43 0.214 0.639 0.342 0.209 0.127 0.395 0.279 0.557 0.456 0.163 0.178 0.295 0.386 0.395 0.626s0.15 0.522 0.15 0.848c0 0.425-0.080 0.799-0.238 1.119-0.158 0.321-0.373 0.59-0.645 0.805s-0.588 0.376-0.951 0.484c-0.046 0.014-0.096 0.020-0.143 0.031v1.094h-0.985v-0.965c-0.013 0-0.024 0.003-0.037 0.003-0.279 0-0.539-0.023-0.779-0.068s-0.452-0.101-0.635-0.164c-0.184-0.064-0.337-0.132-0.46-0.202s-0.212-0.132-0.266-0.186-0.093-0.132-0.116-0.234-0.035-0.25-0.035-0.442c0-0.129 0.004-0.238 0.013-0.325 0.008-0.088 0.022-0.159 0.041-0.214 0.019-0.054 0.044-0.093 0.075-0.116 0.031-0.022 0.068-0.034 0.109-0.034 0.059 0 0.141 0.034 0.248 0.104 0.106 0.068 0.243 0.145 0.41 0.228s0.366 0.159 0.598 0.228c0.231 0.069 0.5 0.104 0.804 0.104 0.2 0 0.38-0.024 0.538-0.072s0.293-0.116 0.404-0.203c0.11-0.088 0.194-0.197 0.253-0.326s0.088-0.274 0.088-0.433c0-0.184-0.051-0.342-0.15-0.473-0.1-0.132-0.23-0.248-0.391-0.351s-0.343-0.198-0.547-0.287c-0.205-0.090-0.415-0.185-0.632-0.285s-0.428-0.214-0.632-0.341c-0.204-0.127-0.387-0.279-0.547-0.457-0.16-0.177-0.291-0.387-0.391-0.628-0.1-0.242-0.15-0.532-0.15-0.87 0-0.388 0.072-0.729 0.216-1.022 0.144-0.294 0.338-0.538 0.582-0.732s0.532-0.339 0.863-0.435c0.17-0.049 0.346-0.085 0.527-0.109v-1.035h0.985v1.035c0.039 0.005 0.078 0.003 0.117 0.009 0.192 0.029 0.372 0.068 0.539 0.118 0.166 0.050 0.314 0.105 0.443 0.168s0.215 0.113 0.258 0.155c0.039 0.037 0.067 0.072 0.082 0.102zM11.018 19.005c0 3.319 2.242 6.010 5.008 6.010h-11.119c0.056-0.158 0.101-0.323 0.101-0.5 0-0.83-0.673-1.503-1.502-1.503-0.178 0-0.343 0.045-0.501 0.101v-8.215c0.158 0.057 0.323 0.101 0.501 0.101 0.83 0 1.502-0.672 1.502-1.502 0-0.178-0.045-0.343-0.101-0.501h11.119c-2.766-0.001-5.008 2.69-5.008 6.009zM7.011 16.919c-0.83 0-1.502 0.896-1.502 2.003s0.673 2.003 1.502 2.003c0.83 0 1.502-0.896 1.502-2.003s-0.672-2.003-1.502-2.003z"></path>
</symbol>
<symbol id="icon-presentation" viewBox="0 0 32 32">
<path d="M27.002 5.005h-23.005c-0.551 0-0.997-0.447-0.997-1s0.446-0.999 0.997-0.999h10.536v-1c0-0.552 0.447-0.999 0.998-0.999s0.997 0.447 0.997 0.999v1h10.474c0.552 0 0.998 0.448 0.998 0.999 0 0.553-0.446 1-0.998 1zM27.002 20.998h-23.005v-14.994h23.005v14.994zM7 13.032c0 2.213 1.791 4.007 4 4.007s4-1.794 4-4.007h-4v-4.009c-2.209 0-4 1.795-4 4.009zM18.024 9.003h-0.997v0.999h0.997v-0.999zM18.024 11.002h-0.997v0.999h0.997v-0.999zM18.024 13.001h-0.997v0.999h0.997v-0.999zM18.024 15h-0.997v1h0.997v-1zM18.024 17h-0.997v1h0.997v-1zM24.010 9.003h-4.987v0.999h4.987v-0.999zM24.010 11.002h-4.987v0.999h4.987v-0.999zM24.010 13.001h-4.987v0.999h4.987v-0.999zM24.010 15h-4.987v1h4.987v-1zM24.010 17h-4.987v1h4.987v-1zM12.781 25.996h2.251v-4.998h0.998v4.998h2.216l-2.216-4.998h1.995l3.989 8.996h-1.994l-1.33-3h-2.66v4.998h-0.998v-4.998h-2.701l-1.351 3h-1.995l4.052-8.996h1.995l-2.251 4.998zM16.030 20.998v0 0 0zM15.032 20.998v0 0 0z"></path>
</symbol>
<symbol id="icon-shipping" viewBox="0 0 32 32">
<path d="M16.722 21.863c-0.456-0.432-0.988-0.764-1.569-0.971l-1.218-4.743 14.506-4.058 1.554 6.056-13.273 3.716zM12.104 9.019l9.671-2.705 1.555 6.058-9.67 2.705-1.556-6.058zM12.538 20.801c-0.27 0.076-0.521 0.184-0.765 0.303l-4.264-16.615h-1.604c-0.161 0.351-0.498 0.598-0.896 0.598h-2.002c-0.553 0-1.001-0.469-1.001-1.046s0.448-1.045 1.001-1.045h2.002c0.336 0 0.618 0.184 0.8 0.447h3.080v0.051l0.046-0.014 4.41 17.183c-0.269 0.025-0.538 0.064-0.807 0.138zM12.797 21.811c1.869-0.523 3.79 0.635 4.291 2.588 0.501 1.951-0.608 3.957-2.478 4.48-1.869 0.521-3.79-0.637-4.291-2.588s0.609-3.957 2.478-4.48zM12.27 25.814c0.214 0.836 1.038 1.332 1.839 1.107s1.276-1.084 1.062-1.92c-0.214-0.836-1.038-1.332-1.839-1.109-0.802 0.225-1.277 1.085-1.062 1.922zM29.87 21.701l-11.684 3.268c-0.021-0.279-0.060-0.561-0.132-0.842-0.071-0.281-0.174-0.545-0.289-0.799l11.623-3.25 0.482 1.623z"></path>
</symbol>
<symbol id="icon-office" viewBox="0 0 32 32">
<path d="M0 32h16v-32h-16v32zM10 4h4v4h-4v-4zM10 12h4v4h-4v-4zM10 20h4v4h-4v-4zM2 4h4v4h-4v-4zM2 12h4v4h-4v-4zM2 20h4v4h-4v-4zM18 10h14v2h-14zM18 32h4v-8h6v8h4v-18h-14z"></path>
</symbol>
<symbol id="icon-drawer" viewBox="0 0 32 32">
<path d="M31.781 20.375l-8-10c-0.19-0.237-0.477-0.375-0.781-0.375h-14c-0.304 0-0.591 0.138-0.781 0.375l-8 10c-0.142 0.177-0.219 0.398-0.219 0.625v9c0 1.105 0.895 2 2 2h28c1.105 0 2-0.895 2-2v-9c0-0.227-0.077-0.447-0.219-0.625zM30 22h-7l-4 4h-6l-4-4h-7v-0.649l7.481-9.351h13.039l7.481 9.351v0.649z"></path>
<path d="M23 16h-14c-0.552 0-1-0.448-1-1s0.448-1 1-1h14c0.552 0 1 0.448 1 1s-0.448 1-1 1z"></path>
<path d="M25 20h-18c-0.552 0-1-0.448-1-1s0.448-1 1-1h18c0.552 0 1 0.448 1 1s-0.448 1-1 1z"></path>
</symbol>
<symbol id="icon-spinner3" viewBox="0 0 32 32">
<path d="M16 9.472c-1.030 0-1.865-0.835-1.865-1.865v-5.596c0-1.030 0.835-1.865 1.865-1.865s1.865 0.835 1.865 1.865v5.596c0 1.030-0.835 1.865-1.865 1.865z"></path>
<path d="M16 31.155c-0.644 0-1.166-0.522-1.166-1.166v-5.596c0-0.644 0.522-1.166 1.166-1.166s1.166 0.522 1.166 1.166v5.596c0 0.644-0.522 1.166-1.166 1.166z"></path>
<path d="M11.805 10.48c-0.604 0-1.192-0.314-1.516-0.875l-2.798-4.846c-0.483-0.836-0.196-1.906 0.64-2.389s1.906-0.196 2.389 0.64l2.798 4.846c0.483 0.836 0.196 1.906-0.64 2.389-0.275 0.159-0.576 0.235-0.873 0.235z"></path>
<path d="M22.995 29.164c-0.363 0-0.715-0.188-0.91-0.525l-2.798-4.846c-0.29-0.502-0.118-1.143 0.384-1.433s1.143-0.118 1.433 0.384l2.798 4.846c0.29 0.502 0.118 1.143-0.384 1.433-0.165 0.095-0.346 0.141-0.524 0.141z"></path>
<path d="M8.729 13.436c-0.277 0-0.557-0.070-0.814-0.219l-4.846-2.798c-0.781-0.451-1.048-1.449-0.597-2.229s1.449-1.048 2.229-0.597l4.846 2.798c0.781 0.451 1.048 1.449 0.597 2.229-0.302 0.524-0.851 0.816-1.415 0.816z"></path>
<path d="M28.114 23.927c-0.158 0-0.319-0.040-0.465-0.125l-4.846-2.798c-0.446-0.258-0.599-0.828-0.341-1.274s0.828-0.599 1.274-0.341l4.846 2.798c0.446 0.258 0.599 0.828 0.341 1.274-0.173 0.299-0.486 0.466-0.809 0.466z"></path>
<path d="M7.607 17.515h-5.596c-0.837 0-1.516-0.678-1.516-1.515s0.678-1.515 1.516-1.515h5.596c0.837 0 1.516 0.678 1.516 1.515s-0.678 1.515-1.516 1.515z"></path>
<path d="M29.989 16.933c-0 0 0 0 0 0h-5.596c-0.515-0-0.933-0.418-0.933-0.933s0.418-0.933 0.933-0.933c0 0 0 0 0 0h5.596c0.515 0 0.933 0.418 0.933 0.933s-0.418 0.933-0.933 0.933z"></path>
<path d="M3.886 24.394c-0.483 0-0.954-0.251-1.213-0.7-0.386-0.669-0.157-1.525 0.512-1.911l4.846-2.798c0.669-0.387 1.525-0.157 1.911 0.512s0.157 1.525-0.512 1.911l-4.846 2.798c-0.22 0.127-0.461 0.188-0.698 0.188z"></path>
<path d="M23.27 12.736c-0.322 0-0.636-0.167-0.809-0.466-0.258-0.446-0.105-1.016 0.341-1.274l4.846-2.798c0.446-0.257 1.016-0.105 1.274 0.341s0.105 1.016-0.341 1.274l-4.846 2.798c-0.147 0.085-0.307 0.125-0.465 0.125z"></path>
<path d="M9.004 29.397c-0.218 0-0.438-0.055-0.64-0.172-0.613-0.354-0.823-1.138-0.469-1.752l2.798-4.846c0.354-0.613 1.138-0.823 1.752-0.469s0.823 1.138 0.469 1.752l-2.798 4.846c-0.237 0.411-0.668 0.641-1.112 0.641z"></path>
<path d="M20.196 9.664c-0.158 0-0.319-0.040-0.465-0.125-0.446-0.258-0.599-0.828-0.341-1.274l2.798-4.846c0.258-0.446 0.828-0.599 1.274-0.341s0.599 0.828 0.341 1.274l-2.798 4.846c-0.173 0.299-0.486 0.466-0.809 0.466z"></path>
</symbol>
<symbol id="icon-stats-dots" viewBox="0 0 32 32">
<path d="M4 28h28v4h-32v-32h4zM9 26c-1.657 0-3-1.343-3-3s1.343-3 3-3c0.088 0 0.176 0.005 0.262 0.012l3.225-5.375c-0.307-0.471-0.487-1.033-0.487-1.638 0-1.657 1.343-3 3-3s3 1.343 3 3c0 0.604-0.179 1.167-0.487 1.638l3.225 5.375c0.086-0.007 0.174-0.012 0.262-0.012 0.067 0 0.133 0.003 0.198 0.007l5.324-9.316c-0.329-0.482-0.522-1.064-0.522-1.691 0-1.657 1.343-3 3-3s3 1.343 3 3c0 1.657-1.343 3-3 3-0.067 0-0.133-0.003-0.198-0.007l-5.324 9.316c0.329 0.481 0.522 1.064 0.522 1.691 0 1.657-1.343 3-3 3s-3-1.343-3-3c0-0.604 0.179-1.167 0.487-1.638l-3.225-5.375c-0.086 0.007-0.174 0.012-0.262 0.012s-0.176-0.005-0.262-0.012l-3.225 5.375c0.307 0.471 0.487 1.033 0.487 1.637 0 1.657-1.343 3-3 3z"></path>
</symbol>
<symbol id="icon-shield" viewBox="0 0 32 32">
<path d="M30 0l-14 4-14-4c0 0-0.141 1.616 0 4l14 4.378 14-4.378c0.141-2.384 0-4 0-4zM2.256 6.097c0.75 7.834 3.547 21.007 13.744 25.903 10.197-4.896 12.995-18.069 13.744-25.903l-13.744 5.167-13.744-5.167z"></path>
</symbol>
<symbol id="icon-tree" viewBox="0 0 32 32">
<path d="M30.5 24h-0.5v-6.5c0-1.93-1.57-3.5-3.5-3.5h-8.5v-4h0.5c0.825 0 1.5-0.675 1.5-1.5v-5c0-0.825-0.675-1.5-1.5-1.5h-5c-0.825 0-1.5 0.675-1.5 1.5v5c0 0.825 0.675 1.5 1.5 1.5h0.5v4h-8.5c-1.93 0-3.5 1.57-3.5 3.5v6.5h-0.5c-0.825 0-1.5 0.675-1.5 1.5v5c0 0.825 0.675 1.5 1.5 1.5h5c0.825 0 1.5-0.675 1.5-1.5v-5c0-0.825-0.675-1.5-1.5-1.5h-0.5v-6h8v6h-0.5c-0.825 0-1.5 0.675-1.5 1.5v5c0 0.825 0.675 1.5 1.5 1.5h5c0.825 0 1.5-0.675 1.5-1.5v-5c0-0.825-0.675-1.5-1.5-1.5h-0.5v-6h8v6h-0.5c-0.825 0-1.5 0.675-1.5 1.5v5c0 0.825 0.675 1.5 1.5 1.5h5c0.825 0 1.5-0.675 1.5-1.5v-5c0-0.825-0.675-1.5-1.5-1.5zM6 30h-4v-4h4v4zM18 30h-4v-4h4v4zM14 8v-4h4v4h-4zM30 30h-4v-4h4v4z"></path>
</symbol>
<symbol id="icon-sun" viewBox="0 0 32 32">
<path d="M16 26c1.105 0 2 0.895 2 2v2c0 1.105-0.895 2-2 2s-2-0.895-2-2v-2c0-1.105 0.895-2 2-2zM16 6c-1.105 0-2-0.895-2-2v-2c0-1.105 0.895-2 2-2s2 0.895 2 2v2c0 1.105-0.895 2-2 2zM30 14c1.105 0 2 0.895 2 2s-0.895 2-2 2h-2c-1.105 0-2-0.895-2-2s0.895-2 2-2h2zM6 16c0 1.105-0.895 2-2 2h-2c-1.105 0-2-0.895-2-2s0.895-2 2-2h2c1.105 0 2 0.895 2 2zM25.899 23.071l1.414 1.414c0.781 0.781 0.781 2.047 0 2.828s-2.047 0.781-2.828 0l-1.414-1.414c-0.781-0.781-0.781-2.047 0-2.828s2.047-0.781 2.828 0zM6.101 8.929l-1.414-1.414c-0.781-0.781-0.781-2.047 0-2.828s2.047-0.781 2.828 0l1.414 1.414c0.781 0.781 0.781 2.047 0 2.828s-2.047 0.781-2.828 0zM25.899 8.929c-0.781 0.781-2.047 0.781-2.828 0s-0.781-2.047 0-2.828l1.414-1.414c0.781-0.781 2.047-0.781 2.828 0s0.781 2.047 0 2.828l-1.414 1.414zM6.101 23.071c0.781-0.781 2.047-0.781 2.828 0s0.781 2.047 0 2.828l-1.414 1.414c-0.781 0.781-2.047 0.781-2.828 0s-0.781-2.047 0-2.828l1.414-1.414z"></path>
<path d="M16 8c-4.418 0-8 3.582-8 8s3.582 8 8 8c4.418 0 8-3.582 8-8s-3.582-8-8-8zM16 21c-2.761 0-5-2.239-5-5s2.239-5 5-5 5 2.239 5 5-2.239 5-5 5z"></path>
</symbol>
<symbol id="icon-brightness-contrast" viewBox="0 0 32 32">
<path d="M16 8c-4.418 0-8 3.582-8 8s3.582 8 8 8 8-3.582 8-8-3.582-8-8-8zM16 21v-10c2.757 0 5 2.243 5 5s-2.243 5-5 5zM16 26c1.105 0 2 0.895 2 2v2c0 1.105-0.895 2-2 2s-2-0.895-2-2v-2c0-1.105 0.895-2 2-2zM16 6c-1.105 0-2-0.895-2-2v-2c0-1.105 0.895-2 2-2s2 0.895 2 2v2c0 1.105-0.895 2-2 2zM30 14c1.105 0 2 0.895 2 2s-0.895 2-2 2h-2c-1.105 0-2-0.895-2-2s0.895-2 2-2h2zM6 16c0 1.105-0.895 2-2 2h-2c-1.105 0-2-0.895-2-2s0.895-2 2-2h2c1.105 0 2 0.895 2 2zM25.899 23.071l1.414 1.414c0.781 0.781 0.781 2.047 0 2.828s-2.047 0.781-2.828 0l-1.414-1.414c-0.781-0.781-0.781-2.047 0-2.828s2.047-0.781 2.828 0zM6.101 8.929l-1.414-1.414c-0.781-0.781-0.781-2.047 0-2.828s2.047-0.781 2.828 0l1.414 1.414c0.781 0.781 0.781 2.047 0 2.828s-2.047 0.781-2.828 0zM25.899 8.929c-0.781 0.781-2.047 0.781-2.828 0s-0.781-2.047 0-2.828l1.414-1.414c0.781-0.781 2.047-0.781 2.828 0s0.781 2.047 0 2.828l-1.414 1.414zM6.101 23.071c0.781-0.781 2.047-0.781 2.828 0s0.781 2.047 0 2.828l-1.414 1.414c-0.781 0.781-2.047 0.781-2.828 0s-0.781-2.047 0-2.828l1.414-1.414z"></path>
</symbol>
<symbol id="icon-wondering" viewBox="0 0 32 32">
<path d="M16 32c8.837 0 16-7.163 16-16s-7.163-16-16-16-16 7.163-16 16 7.163 16 16 16zM16 3c7.18 0 13 5.82 13 13s-5.82 13-13 13-13-5.82-13-13 5.82-13 13-13zM23.304 18.801l0.703 2.399-13.656 4-0.703-2.399zM8 10c0-1.105 0.895-2 2-2s2 0.895 2 2c0 1.105-0.895 2-2 2s-2-0.895-2-2zM20 10c0-1.105 0.895-2 2-2s2 0.895 2 2c0 1.105-0.895 2-2 2s-2-0.895-2-2z"></path>
</symbol>
<symbol id="icon-loop2" viewBox="0 0 32 32">
<path d="M27.802 5.197c-2.925-3.194-7.13-5.197-11.803-5.197-8.837 0-16 7.163-16 16h3c0-7.18 5.82-13 13-13 3.844 0 7.298 1.669 9.678 4.322l-4.678 4.678h11v-11l-4.198 4.197z"></path>
<path d="M29 16c0 7.18-5.82 13-13 13-3.844 0-7.298-1.669-9.678-4.322l4.678-4.678h-11v11l4.197-4.197c2.925 3.194 7.13 5.197 11.803 5.197 8.837 0 16-7.163 16-16h-3z"></path>
</symbol>
<symbol id="icon-pagebreak" viewBox="0 0 32 32">
<path d="M8 12v-12h24v12h-2v-10h-20v10zM32 18v14h-24v-14h2v12h20v-12zM16 14h4v2h-4zM10 14h4v2h-4zM22 14h4v2h-4zM28 14h4v2h-4zM0 9l6 6-6 6z"></path>
</symbol>
</defs>
</svg>
